# xmcd
#
# Track frame offsets:
#	150
#	17784
#	43068
#	64187
#	83682
#	95841
#	112424
#	139567
#	157200
#	182337
#	199953
#	229195
#	258481
#	284842
#
# Disc length: 4087 seconds
#
# Revision: 1
# Processed by: cddbd v1.5.2PL0 Copyright (c) Steve Scherf et al.
# Submitted via: audiograbber 1.83.01
#
DISCID=d50ff50e
DTITLE=Various Artist - Lucerne Blues Festival 2000 - Part 1
DYEAR=2000
DGENRE=
TTITLE0=Roscoe Robinson - So Called Friends
TTITLE1=Dave Riley - Come Here Baby
TTITLE2=Studebaker John and The Hawks - Time Will Tell
TTITLE3=Cootie Stark - She's Gone
TTITLE4=Magie Slim and The Teardrops/Nick Holt - Need Some Good Lovin'
TTITLE5=Mary-Ann Brandon (with Anson Funderburgh) - Dollar and Sense
TTITLE6=Arthur Williams - I Met You Baby
TTITLE7=John Primer - Knocking At Your Door
TTITLE8=Sherman Robertson - Don't Throw Your Love On Me So Strong
TTITLE9=Sweet Betty - They Call Me Sweet Betty
TTITLE10=John Weston - To Lose Is Blues
TTITLE11=Magie Slim and The Teardrops - Baby Can't You See
TTITLE12=Fred James - I Believe In Your Love
TTITLE13=John "Cool" Ferguson - His Name Is Victor
EXTD=
EXTT0=
EXTT1=
EXTT2=
EXTT3=
EXTT4=
EXTT5=
EXTT6=
EXTT7=
EXTT8=
EXTT9=
EXTT10=
EXTT11=
EXTT12=
EXTT13=
PLAYORDER=
